<?xml version="1.0" standalone="no"?>
<!DOCTYPE svg PUBLIC "-//W3C//DTD SVG 20010904//EN"
 "http://www.w3.org/TR/2001/REC-SVG-20010904/DTD/svg10.dtd">
<svg version="1.0" xmlns="http://www.w3.org/2000/svg"
 width="242.000000pt" height="243.000000pt" viewBox="0 0 242.000000 243.000000"
 preserveAspectRatio="xMidYMid meet">

<g transform="translate(0.000000,243.000000) scale(0.100000,-0.100000)"
fill="#000000" stroke="none">
<path d="M1060 2271 c-112 -10 -164 -25 -200 -61 -16 -15 -39 -32 -52 -36 -51
-16 -101 -61 -152 -138 -59 -87 -80 -132 -72 -152 3 -8 -3 -37 -12 -66 -13
-42 -17 -91 -17 -235 l0 -183 -36 0 c-76 0 -110 -74 -90 -198 13 -84 45 -159
91 -217 17 -21 30 -48 30 -59 0 -32 21 -54 54 -58 27 -3 32 -9 47 -59 19 -66
61 -130 131 -201 42 -42 49 -54 39 -67 -6 -9 -16 -26 -23 -38 -12 -25 -19 -28
-213 -78 -77 -20 -152 -43 -167 -51 -28 -15 -70 -65 -82 -99 -11 -31 -36 -217
-30 -227 8 -13 34 -9 34 5 0 7 5 51 10 97 15 124 35 167 91 196 20 10 265 77
322 87 5 1 19 -25 31 -58 30 -80 77 -175 86 -175 3 0 24 22 46 49 49 62 59 67
73 33 8 -20 31 -36 76 -58 36 -16 65 -27 65 -23 0 10 -40 34 -82 49 -29 11
-40 22 -49 47 -6 18 -17 33 -24 33 -7 0 -34 -23 -59 -51 l-46 -51 -25 55 c-14
30 -31 80 -37 110 -10 48 -9 58 8 88 22 38 54 48 74 24 13 -15 5 -20 -27 -16
-43 6 13 -55 175 -193 51 -43 100 -92 108 -109 17 -31 17 -28 -12 -129 -3 -10
-1 -18 4 -18 5 0 15 19 22 42 27 93 90 182 211 298 49 47 89 91 89 98 0 7 -12
12 -27 12 -25 0 -26 1 -11 16 33 33 88 -20 88 -85 0 -30 -43 -158 -58 -173 -5
-5 -28 12 -52 37 -51 52 -67 56 -76 18 -3 -16 -8 -36 -11 -45 -2 -10 -24 -34
-47 -53 -42 -34 -96 -102 -96 -119 0 -5 13 8 29 27 16 20 49 55 75 78 30 27
49 54 56 80 6 22 14 39 17 39 4 0 28 -24 54 -53 31 -34 51 -49 57 -42 5 6 27
55 47 110 20 55 38 101 40 103 1 1 45 -8 96 -22 52 -13 122 -30 156 -36 122
-24 152 -64 173 -232 11 -85 15 -98 31 -98 23 0 23 -4 4 121 -16 109 -40 165
-81 198 -30 23 -43 28 -233 72 -138 32 -136 31 -196 101 -16 18 -13 22 54 93
77 81 102 123 120 202 12 51 13 51 45 46 27 -4 34 -1 44 21 7 15 12 34 12 43
0 8 16 37 35 63 64 87 79 133 79 247 1 94 -1 103 -23 127 -19 20 -34 26 -69
26 l-44 0 6 33 c14 79 18 226 7 292 -7 39 -16 103 -20 143 -11 92 -66 207
-123 256 -71 61 -213 126 -297 137 -115 15 -178 18 -271 10z m-462 -918 c-10
-2 -26 -2 -35 0 -10 3 -2 5 17 5 19 0 27 -2 18 -5z m1160 0 c-10 -2 -28 -2
-40 0 -13 2 -5 4 17 4 22 1 32 -1 23 -4z m-1186 -400 c-3 -16 -7 -22 -10 -15
-4 13 4 42 11 42 2 0 2 -12 -1 -27z"/>
<path d="M553 159 c4 -13 7 -45 7 -71 0 -42 3 -48 21 -48 14 0 19 5 16 18 -3
9 -10 38 -17 65 -7 26 -17 50 -23 54 -6 4 -8 -3 -4 -18z"/>
<path d="M1762 153 c-7 -15 -16 -47 -21 -70 -8 -38 -7 -43 9 -43 14 0 19 12
25 66 8 73 3 89 -13 47z"/>
</g>
</svg>
