<svg version="1.1" id="Layer_1" xmlns="http://www.w3.org/2000/svg" xmlns:xlink="http://www.w3.org/1999/xlink" x="0px" y="0px"
	 width="100%" viewBox="0 0 608 608" enable-background="new 0 0 608 608" xml:space="preserve">
<path fill="#000000" opacity="1.000000" stroke="none" 
	d="
M299.343689,352.366180 
	C297.003540,357.366638 294.643127,361.951416 293.153564,366.913086 
	C291.678436,371.826630 289.395233,373.051880 284.550507,371.622040 
	C278.580139,369.859985 277.885834,368.721741 279.270081,363.310120 
	C280.156036,359.846466 280.927826,356.353577 281.438629,352.779999 
	C277.013245,360.368561 274.192505,368.833466 267.071503,374.627899 
	C259.546936,380.750641 250.517303,381.514832 242.765320,375.826935 
	C236.785294,371.439178 236.204895,364.523376 235.817673,357.869507 
	C235.389557,350.513123 238.076523,343.800781 241.396866,337.433777 
	C245.109589,330.314423 250.067963,324.018738 255.403793,318.038879 
	C257.814697,315.336945 261.100250,313.903107 264.431091,312.972382 
	C269.330475,311.603394 272.614075,314.940613 271.808868,320.180145 
	C271.626862,321.364532 271.891602,322.216736 272.805145,322.727539 
	C282.672028,328.244629 284.195099,337.055115 282.545044,347.240479 
	C285.490601,341.524323 286.669983,335.313843 288.389587,329.282684 
	C290.172668,323.028839 291.822266,321.995789 298.076538,324.177032 
	C300.575165,325.048492 301.883331,323.828064 303.316895,322.483673 
	C307.515015,318.546661 312.400238,315.773987 317.719696,313.684937 
	C325.467133,310.642395 332.607391,314.002686 335.119873,321.915588 
	C335.658936,323.613373 335.591980,325.559601 337.204559,326.890869 
	C339.789612,326.496460 340.353027,324.133453 341.512207,322.444733 
	C347.017059,314.425110 356.410706,309.882233 364.042084,311.641724 
	C371.975189,313.470764 375.573242,317.785522 376.015289,326.028656 
	C376.065277,326.961029 376.022034,327.898438 376.022034,329.659729 
	C380.288025,323.317810 381.108185,316.018250 386.657410,311.452911 
	C388.664734,309.801483 390.308990,306.880402 393.280609,309.553223 
	C395.841248,311.856384 397.561523,314.225067 394.983643,318.144684 
	C390.293854,325.275391 388.059509,333.549225 385.647461,341.664673 
	C384.944458,344.029938 386.376862,345.815796 388.155365,347.247345 
	C390.499603,349.134247 393.024048,349.040466 395.679443,347.953888 
	C404.926758,344.169952 410.278656,336.837921 414.281372,328.083771 
	C416.258087,323.760681 416.935089,319.206055 417.569427,314.640839 
	C418.167023,310.340210 420.274597,309.869995 423.837250,311.239044 
	C431.205292,314.070374 431.290955,314.176453 431.178894,322.048004 
	C431.097504,327.762970 431.162964,333.480072 431.162964,339.155792 
	C433.483398,339.865356 434.541901,338.228241 435.525482,337.080231 
	C445.594543,325.327850 454.446564,312.801819 455.146454,296.661316 
	C455.640717,285.263275 451.989380,275.265228 441.661743,268.939514 
	C437.309082,266.273499 432.793335,265.683716 428.013702,268.644714 
	C423.892975,271.197479 416.453491,267.702576 415.284027,262.895203 
	C414.570404,259.961548 416.645386,258.278870 418.793274,256.904694 
	C429.397034,250.120621 440.761414,250.508102 450.770874,258.520935 
	C466.290039,270.944427 471.337402,287.699982 468.517365,306.694000 
	C465.708038,325.615692 455.738892,341.009064 442.259277,354.287201 
	C438.112427,358.372070 433.891663,362.349274 429.260223,365.881592 
	C424.509064,369.505219 424.777191,375.323883 423.247101,380.264282 
	C418.753326,394.774048 412.397430,408.178223 401.238800,418.781647 
	C395.437927,424.293823 388.303375,427.516693 380.418854,428.898285 
	C370.689087,430.603241 364.572601,424.090057 365.019836,413.892853 
	C366.024628,390.982971 379.672638,376.957428 397.702301,365.799927 
	C400.525940,364.052582 403.577240,362.677063 406.474091,361.042511 
	C408.017059,360.171906 409.865387,359.379272 409.166138,356.900482 
	C407.034546,355.821411 405.780670,357.520935 404.290802,358.388977 
	C396.477539,362.941193 388.576202,363.867310 380.892822,358.341339 
	C377.974792,356.242615 376.246552,356.666443 373.660614,359.019836 
	C366.063416,365.933594 356.756531,368.852295 346.610535,368.789032 
	C340.240326,368.749359 335.623718,364.873077 333.860870,358.754028 
	C333.178192,356.384277 332.757141,353.939148 332.206879,351.483612 
	C328.817169,354.302185 324.092102,367.320984 324.364014,372.974213 
	C325.946381,373.905457 327.199829,372.657532 328.572449,372.287537 
	C330.797913,371.687683 332.528625,372.455902 333.835297,374.192749 
	C335.238831,376.058319 335.601868,378.151337 334.511688,380.299683 
	C331.676117,385.887695 321.655792,390.085663 315.501740,388.306458 
	C308.480225,386.276459 305.204193,381.180389 306.183960,373.924469 
	C307.693054,362.748322 311.889557,352.437561 316.200623,342.139679 
	C318.081024,337.647949 320.783875,333.331268 320.559448,327.270264 
	C310.202454,333.415283 304.830780,342.704529 299.343689,352.366180 
M401.564423,379.066467 
	C391.005219,385.945862 382.185822,394.220917 379.038849,407.067932 
	C378.541168,409.099670 377.023499,411.385773 379.533813,412.912384 
	C382.047943,414.441284 383.949768,412.415070 385.701202,410.978851 
	C391.420135,406.289154 396.110138,400.626648 399.869385,394.324371 
	C402.869537,389.294678 405.404572,383.941467 406.740540,378.180267 
	C404.637543,376.890289 403.449585,378.037994 401.564423,379.066467 
M261.725555,349.317078 
	C263.218536,346.179932 264.877747,343.104553 265.462555,339.620361 
	C265.762024,337.836151 266.448242,335.741638 264.385620,334.714569 
	C262.211334,333.631866 261.023529,335.565063 260.038116,337.031677 
	C255.730209,343.443176 252.847488,350.456940 251.533203,358.087982 
	C251.269516,359.618958 251.182999,361.299652 252.940765,361.895782 
	C254.723083,362.500183 255.667679,360.958740 256.402039,359.697479 
	C258.232758,356.553284 260.426086,353.590271 261.725555,349.317078 
M356.913727,338.409302 
	C360.432922,335.421387 362.637238,331.578888 364.117371,327.275269 
	C364.743195,325.455475 364.166260,324.000214 362.575714,322.990112 
	C360.966736,321.968292 359.754303,322.748352 358.699738,323.996948 
	C355.651642,327.605835 353.481659,331.685883 352.639618,336.337250 
	C352.050629,339.590820 353.576355,340.284241 356.913727,338.409302 
M353.314362,355.834686 
	C356.836517,355.939240 359.645691,354.281494 362.349854,352.272064 
	C364.990906,350.309479 367.468109,347.829712 370.443481,346.680145 
	C375.452667,344.744781 376.075317,344.019012 373.365173,338.275299 
	C369.439453,346.959473 361.519501,349.720184 353.910370,352.935638 
	C352.726624,353.435913 351.151215,353.880920 353.314362,355.834686 
z"/>
<path fill="#000000" opacity="1.000000" stroke="none" 
	d="
M266.525818,259.536377 
	C264.238770,258.187958 262.184570,256.657532 263.851593,254.279724 
	C265.222961,252.323593 267.493896,253.500076 269.335236,254.310822 
	C269.787567,254.510025 270.156586,254.905685 270.613190,255.086823 
	C272.856934,255.976913 273.912903,260.803192 277.427368,257.393036 
	C280.472839,254.438049 280.862274,246.748718 278.104889,244.177765 
	C276.300659,242.495529 274.039642,241.307831 272.008667,239.862808 
	C270.325287,238.665100 268.461029,237.184830 269.800995,234.987305 
	C271.219238,232.661453 273.495209,233.399673 275.516418,234.524536 
	C276.926361,235.309204 277.848663,236.939514 279.735565,237.053436 
	C282.116516,235.191879 282.372925,232.621597 282.636353,229.915543 
	C283.349426,222.589996 285.196259,215.516312 288.043518,208.731216 
	C290.019379,204.022690 293.527374,200.464554 297.076508,196.897385 
	C300.451202,193.505524 298.050293,184.276871 293.574005,182.564301 
	C291.797913,181.884781 290.796997,183.017578 289.629730,183.961975 
	C287.926270,185.340240 286.027039,185.908356 284.190399,184.326782 
	C282.474670,182.849319 282.404419,180.778061 282.981354,178.780670 
	C283.613068,176.593536 285.243896,175.653214 287.530853,175.659683 
	C292.950256,175.675034 295.767426,179.529892 298.601807,183.226883 
	C299.694977,184.652802 300.454041,186.412277 301.042572,188.130356 
	C302.034729,191.026718 303.598145,191.721970 306.339294,190.255371 
	C311.578674,187.452164 317.325470,186.547913 323.156006,185.925659 
	C326.625275,185.555405 330.399628,179.182159 329.149841,176.068253 
	C328.438995,174.297134 327.016754,174.235840 325.413177,174.477188 
	C322.971741,174.844635 320.522400,174.780502 319.684448,171.919800 
	C319.051971,169.760681 319.441650,167.579849 321.420135,166.060623 
	C323.648712,164.349350 326.013947,164.318146 328.442017,165.625275 
	C331.097778,167.054993 331.891693,169.638184 332.206635,172.303909 
	C332.478485,174.604782 332.848572,177.143356 332.175751,179.259018 
	C330.278473,185.225143 333.381836,187.555511 338.245392,189.551056 
	C349.401703,194.128540 358.901825,201.017197 365.860352,211.030121 
	C374.155579,222.966507 376.056427,236.383591 374.897552,250.531036 
	C374.436676,256.157440 372.242188,261.426117 371.427948,267.116516 
	C375.714661,268.604401 379.390839,266.918793 382.906525,265.893768 
	C389.134033,264.078186 394.805756,265.471130 400.318268,267.960480 
	C405.904083,270.482941 407.856934,274.484161 406.308990,279.035797 
	C404.778381,283.536469 399.931641,286.228760 394.501862,285.164642 
	C391.420990,284.560852 388.469910,283.294128 385.460907,282.324493 
	C384.262695,281.938385 383.139984,280.804504 381.729553,281.983337 
	C381.357025,283.919220 383.039825,284.899933 383.868469,286.226471 
	C386.662506,290.699188 388.492340,295.442963 388.473053,300.777588 
	C388.455994,305.492462 386.778931,309.392059 382.126343,311.089569 
	C377.964874,312.607910 373.578888,310.607666 370.757996,305.944489 
	C367.132080,299.950592 366.282288,293.127136 365.667725,286.306396 
	C365.474854,284.165955 365.737152,281.961792 363.895599,279.494446 
	C359.985809,283.338776 356.580200,287.584625 352.186737,290.723633 
	C337.003296,301.571625 320.689758,309.498596 301.539551,309.292908 
	C289.288879,309.161316 279.284912,303.701324 271.976410,294.051575 
	C268.449463,289.394806 265.322113,284.564850 260.468628,281.116089 
	C258.893860,279.997101 257.217651,278.625031 257.873657,276.205414 
	C258.181915,275.997864 258.426727,275.748749 258.722229,275.647461 
	C260.978363,274.873810 263.295746,277.683838 265.407532,275.777496 
	C268.266449,273.196716 270.766968,270.081238 272.203857,266.602966 
	C274.124817,261.952972 269.301697,261.533173 266.525818,259.536377 
M339.472260,256.030670 
	C341.171448,255.361923 342.873413,254.700089 344.569275,254.023056 
	C348.838684,252.318619 351.286774,249.482941 351.040985,244.563690 
	C350.836334,240.468140 348.433563,238.148163 345.099915,236.714462 
	C340.941803,234.926163 337.669403,237.221634 334.791473,239.853424 
	C330.467377,243.807678 328.787598,249.371033 326.732391,254.571854 
	C325.623505,257.377930 327.497528,259.046173 330.554352,258.433441 
	C333.313049,257.880493 336.011993,257.029358 339.472260,256.030670 
M335.609192,223.360886 
	C337.054108,222.352737 338.802795,221.537979 338.249023,218.927948 
	C333.182739,219.503128 329.611755,217.625992 328.205566,212.458740 
	C327.840485,211.117126 327.785065,209.025955 325.708313,209.459381 
	C323.541016,209.911682 323.261353,211.918869 323.512177,213.835632 
	C324.195190,219.054962 329.149017,223.244186 335.609192,223.360886 
M294.662476,216.915161 
	C291.964539,217.641876 291.560913,220.138840 290.688293,222.209518 
	C290.121307,223.554947 290.597504,224.845993 291.705261,225.789627 
	C292.743866,226.674347 293.859955,226.424454 294.931885,225.779190 
	C296.200500,225.015503 296.811554,223.912109 296.491852,222.433716 
	C296.110840,220.671829 295.656219,218.925858 294.662476,216.915161 
z"/>
<path fill="#000000" opacity="1.000000" stroke="none" 
	d="
M167.326813,292.312775 
	C174.163239,286.084381 181.151047,280.594666 189.877808,278.265411 
	C200.996948,275.297638 211.019226,277.872986 219.277161,285.979523 
	C224.755768,291.357697 225.881683,300.211060 222.511841,307.802338 
	C218.395782,317.074646 214.156769,326.293701 210.167221,335.619781 
	C209.261063,337.738068 206.415146,340.442139 210.246887,342.425415 
	C214.097046,344.418152 219.572083,342.530701 220.737885,339.035797 
	C224.103409,328.946594 227.197586,318.762817 230.755737,308.743073 
	C234.206833,299.024841 238.458099,289.622498 244.080460,280.933075 
	C247.745682,275.268402 252.711761,275.185730 255.796783,280.482971 
	C256.811462,282.225250 256.750244,283.837341 256.077179,285.707092 
	C251.352142,298.833405 246.078827,311.807281 242.204788,325.184387 
	C236.483200,344.941132 230.673126,364.738831 228.264908,385.290222 
	C228.226166,385.620789 228.313507,386.003998 228.175552,386.279175 
	C226.772995,389.076294 229.575073,394.471893 223.354752,394.291321 
	C216.070038,394.079803 212.877518,391.055969 212.896423,384.663177 
	C212.920166,376.631989 214.416992,368.763611 215.488876,360.850647 
	C216.242676,355.285797 215.573883,354.424011 209.883499,354.344543 
	C200.452362,354.212860 200.809250,354.365967 197.024414,363.186249 
	C191.330551,376.455475 187.710907,390.110992 187.307953,404.570618 
	C187.270905,405.900177 187.398956,407.233521 187.403641,408.565277 
	C187.414139,411.546844 189.589676,415.587921 185.735809,417.019897 
	C181.918076,418.438416 177.458572,418.126495 173.858322,415.408173 
	C168.111404,411.069061 166.828568,404.623993 166.601547,398.061066 
	C166.143463,384.819336 170.616302,372.606903 175.250198,360.490540 
	C182.435623,341.702637 192.126205,324.092163 200.872528,306.036163 
	C202.525452,302.623871 203.784134,298.930511 204.606796,295.229462 
	C205.591354,290.800110 203.968552,289.428253 199.876358,291.257996 
	C184.031815,298.342468 173.090546,309.514069 168.806534,327.009857 
	C166.477524,336.521454 167.483261,344.660767 173.376587,352.393463 
	C175.386078,355.030121 173.624176,357.156006 169.503922,357.343719 
	C163.198624,357.630981 154.447464,351.422150 151.797241,344.598114 
	C147.205688,332.775360 149.547379,321.366730 154.272751,310.229401 
	C157.170624,303.399384 161.944824,297.823120 167.326813,292.312775 
z"/>
<path fill="#000000" opacity="1.000000" stroke="none" 
	d="
M290.716553,407.180725 
	C292.969696,403.939117 293.513611,400.037476 296.612549,397.455933 
	C300.361023,399.875702 299.755096,405.111176 303.253571,407.678253 
	C305.253326,406.652863 304.309998,404.764374 304.640778,403.282959 
	C305.064880,401.383636 303.641907,398.113312 306.849884,398.120300 
	C310.427429,398.128082 308.891998,401.555695 309.227203,403.608429 
	C309.413239,404.747650 309.200317,405.949097 309.356415,407.096771 
	C309.616669,409.009918 310.359222,410.952789 312.570251,410.860962 
	C314.494141,410.781067 315.214417,408.781769 315.349426,407.171143 
	C315.595459,404.235168 315.419342,401.263763 315.419342,397.839661 
	C319.143158,398.625519 322.256927,397.593536 325.452271,397.647919 
	C331.683624,397.753967 333.036072,399.450439 331.748077,405.704742 
	C331.580780,406.517029 331.213226,407.290558 332.439850,408.942505 
	C337.016937,406.537018 336.605072,400.244324 340.728088,397.554932 
	C344.179871,400.150940 344.043274,405.436493 347.798889,407.941711 
	C349.626099,406.330048 348.625519,404.526489 348.999573,403.006989 
	C349.458191,401.143677 348.101410,397.896271 351.490753,398.061890 
	C354.396057,398.203796 353.235901,401.066711 353.389099,402.893524 
	C353.458344,403.719360 353.395935,404.558777 353.358795,405.390533 
	C353.236328,408.130249 353.779816,410.398193 357.016266,410.949127 
	C358.494232,411.200714 359.534698,411.977173 359.240967,413.660065 
	C358.946503,415.347229 357.494568,415.815521 356.195709,415.558258 
	C351.693176,414.666504 346.411499,417.186676 342.759338,412.310608 
	C341.614624,410.782288 339.440887,411.066437 338.288574,412.415833 
	C334.384277,416.987854 330.693848,416.411713 327.323639,412.275421 
	C325.255798,412.711975 325.374298,415.750427 323.172607,414.992645 
	C320.992096,414.242157 321.250122,412.033722 321.085754,410.314545 
	C320.866272,408.018921 321.031494,405.686493 320.301758,403.322021 
	C320.224121,403.984711 320.095001,404.645966 320.076630,405.310303 
	C319.826447,414.357147 317.311493,416.354248 308.334473,415.094818 
	C304.729156,414.589050 300.946503,415.483734 298.222931,411.737915 
	C297.297424,410.465088 295.051910,411.479370 293.839355,412.827545 
	C290.307617,416.754150 286.999298,415.881989 283.589233,412.595673 
	C281.967041,411.032379 280.641418,408.922455 278.108521,408.659851 
	C276.111786,409.612976 276.559174,411.501190 276.211884,413.047852 
	C275.976074,414.098114 275.544128,414.983978 274.305603,414.939270 
	C273.090637,414.895508 272.555420,413.957825 272.425598,412.946075 
	C271.774597,407.872681 272.355133,402.853729 272.633362,397.399689 
	C277.181946,398.882507 278.961548,403.234253 282.848083,404.253143 
	C285.191406,402.752930 283.949249,400.118530 285.225189,397.962769 
	C288.727753,397.682404 287.826202,400.460938 288.425079,402.448395 
	C288.932037,404.130798 286.214600,407.383759 290.716553,407.180725 
z"/>
<path fill="#000000" opacity="1.000000" stroke="none" 
	d="
M233.710449,400.055420 
	C235.100876,398.880920 236.354523,397.314148 237.775665,397.816254 
	C243.382385,399.797241 249.348007,396.275360 254.773895,399.046814 
	C257.119934,400.245117 258.567780,396.790710 261.133362,398.452789 
	C259.687256,401.921326 259.950653,404.870178 263.517456,407.503845 
	C265.262665,408.792419 264.826691,411.890259 263.442291,413.987457 
	C262.241425,415.806610 259.917480,416.092865 258.550507,415.042816 
	C255.602539,412.778351 253.179504,413.722015 250.563950,415.750854 
	C248.539841,412.510834 252.157257,410.710205 251.895996,408.234985 
	C250.667038,407.000397 249.131424,407.205139 247.719910,407.030396 
	C246.019730,408.015289 246.120651,409.909027 245.419571,411.359375 
	C243.278076,415.789703 239.701630,417.121277 235.740952,414.178986 
	C233.328629,412.386902 231.947632,412.848694 229.689865,414.224945 
	C225.015442,417.074371 220.747482,414.821259 219.812134,409.375122 
	C218.477997,401.606781 221.189728,397.706940 227.460251,397.296997 
	C230.380630,397.106079 230.988266,400.243958 233.710449,400.055420 
M225.127335,402.971466 
	C222.853363,405.678772 222.784805,408.155243 225.715012,410.454681 
	C229.663483,407.027710 229.625717,405.537689 225.127335,402.971466 
M238.071075,407.979584 
	C238.352798,409.112488 238.655853,410.374542 240.158997,410.156616 
	C241.254410,409.997833 241.639206,408.933228 241.703522,407.931000 
	C241.834869,405.884491 242.171097,403.690643 239.626404,402.768005 
	C237.681274,403.933258 238.057739,405.667572 238.071075,407.979584 
z"/>
<path fill="#000000" opacity="1.000000" stroke="none" 
	d="
M210.698059,408.114929 
	C210.642944,405.555878 210.966446,403.315186 209.223526,401.626129 
	C208.302109,400.733215 207.702408,399.805054 208.590363,398.636292 
	C209.383972,397.591705 210.614090,397.674591 211.774292,397.728516 
	C213.060013,397.788269 214.121201,398.317078 214.154282,399.711334 
	C214.259857,404.160614 214.275284,408.612640 214.267700,413.063507 
	C214.265869,414.138763 213.732208,415.073059 212.530258,415.039124 
	C211.356110,415.006012 210.861908,414.067261 210.798431,412.997559 
	C210.710617,411.517303 210.723801,410.031097 210.698059,408.114929 
z"/>
</svg>